<svg width="169" height="161" viewBox="0 0 169 161" fill="none" xmlns="http://www.w3.org/2000/svg">
<g clip-path="url(#clip0_527_1139)">
<path d="M64.6621 152.57C64.6417 153.442 64.6263 154.314 64.6059 155.186C64.0702 155.196 63.8151 155.431 63.9579 155.987C63.8763 156.66 63.9273 157.379 62.9834 157.557C62.8048 157.593 62.6772 157.996 62.5599 158.246C62.2742 158.863 61.7894 159.281 61.2129 159.603C60.6669 159.444 60.3353 159.597 60.3404 160.22C60.1159 160.24 59.8965 160.26 59.672 160.281C59.1158 160.281 58.5086 160.174 58.3249 160.939C40.681 160.934 23.0422 160.923 5.39828 160.918C5.34726 160.714 5.41359 160.316 5.2146 160.342C4.42374 160.434 3.98493 159.715 3.33183 159.597C2.6124 159.47 2.30116 158.889 1.92869 158.46C1.0817 157.491 0.224503 156.476 0.229606 155.053C0.229606 154.921 0.0816376 154.788 0 154.661C0 140.83 0 126.999 0 113.168C0.142866 113.3 0.280629 113.3 0.382676 113.127C1.15823 111.78 2.30626 110.847 3.67879 110.184C4.03086 110.016 4.24005 109.664 4.47476 109.45C5.46972 108.552 6.59734 108.96 7.66373 108.848C8.10253 108.802 8.54133 108.797 8.98524 108.771C9.18423 108.771 9.37812 108.771 9.57711 108.771L9.61282 108.843C9.49547 109.337 9.68426 109.541 10.1996 109.531C11.2456 109.511 12.2967 109.516 13.3477 109.531C13.8682 109.541 14.0468 109.322 13.9039 108.828L13.96 108.761C14.1539 108.761 14.3478 108.771 14.5417 108.771C14.858 108.792 15.1744 108.822 15.4907 108.822C26.5067 108.822 37.5278 108.822 48.5437 108.822C48.957 108.822 49.3703 108.787 49.7785 108.771C50.0132 108.771 50.253 108.761 50.4877 108.756L50.5132 108.843C50.4469 109.317 50.6051 109.541 51.1306 109.526C52.1103 109.501 53.095 109.501 54.0747 109.526C54.5798 109.536 54.7788 109.343 54.6921 108.848L54.7227 108.771C54.9727 108.771 55.2176 108.771 55.4676 108.776C55.8452 108.792 56.2279 108.822 56.6055 108.828C57.2994 108.828 58.0545 108.695 58.6566 109.037C59.0291 109.251 59.3148 109.557 59.7893 109.501C59.7689 110.031 60.2281 110.046 60.5445 110.174C61.417 110.531 62.218 110.878 62.6824 111.836C62.912 112.316 63.0956 113.076 63.8967 113.106C63.9171 113.315 63.9324 113.525 63.9528 113.739C63.7896 114.32 64.1314 114.494 64.611 114.55C64.611 126.228 64.611 137.912 64.6212 149.591C64.6212 150.576 64.6468 151.565 64.657 152.549L64.6621 152.57ZM27.9303 138.407C27.8843 139.611 28.7619 139.06 29.3079 139.131L29.2824 139.177L29.313 139.131C29.3028 141.233 29.2977 143.334 29.2722 145.435C29.2671 145.996 29.4814 146.281 30.0579 146.241C29.9865 146.791 30.4202 146.797 30.7672 146.888C30.7059 147.526 31.0478 147.679 31.5988 147.572C32.0223 147.572 32.4458 147.572 32.8744 147.572C33.9867 147.597 34.9868 146.613 34.997 145.445C35.0123 143.67 35.0174 141.901 34.9919 140.126C34.9817 139.56 35.0225 139.142 35.7266 139.075C36.0685 139.045 36.4155 138.881 36.3491 138.407C37.1349 138.448 37.5176 138.06 37.5227 137.285C37.7166 137.132 37.89 136.928 38.1094 136.831C39.2422 136.316 39.4616 135.153 39.9871 134.215C40.9106 133.975 40.6606 133.226 40.6912 132.598C40.63 131.502 40.5688 130.405 40.6912 129.309C40.7423 128.472 40.8902 127.621 40.0891 126.993C39.9769 126.907 39.9667 126.636 39.982 126.458C40.033 125.877 39.7014 125.754 39.2269 125.78C39.1809 125.509 39.2269 125.265 38.9615 125.015C38.6197 124.699 38.2625 124.423 37.8951 124.132C37.1961 123.582 36.5277 123.021 35.5991 122.903C35.4103 122.893 35.2215 122.878 35.0276 122.868C34.9868 121.705 34.1398 122.271 33.5888 122.205C32.6754 122.205 31.7672 122.2 30.8539 122.194C30.0885 122.062 29.4865 122.312 28.7977 122.71C28.165 123.072 27.5119 123.5 26.8077 123.796C26.4761 123.939 25.6189 124.204 25.8179 125.02C25.6291 125.035 25.323 124.989 25.2719 125.081C24.6954 126.198 23.5065 127.044 23.7412 128.518C23.7412 130.14 23.7412 131.762 23.7412 133.379C23.6188 133.924 23.7667 134.261 24.3943 134.23L24.4913 134.929C24.4096 135.368 24.5831 135.582 25.0321 135.551C25.1342 135.878 25.0576 136.301 25.6189 136.316C25.874 136.321 25.9965 136.597 26.022 136.862C25.7873 137.045 25.7107 137.357 25.925 137.499C26.5322 137.902 26.9659 138.759 27.9201 138.402L27.9303 138.407ZM56.233 135.036C56.233 131.216 56.233 127.396 56.233 123.571C56.233 123.026 56.2228 122.485 56.0493 121.97C55.835 121.333 55.5033 120.807 54.7176 120.812C54.1767 120.812 53.6359 120.828 53.095 120.812C52.2072 120.792 51.8297 121.22 51.8348 122.092C51.8399 130.533 51.8348 138.968 51.8348 147.409C51.8348 147.658 51.7939 147.919 51.9623 148.143C52.4317 148.755 54.3808 149.296 55.1564 148.877C55.9268 148.459 56.2585 147.745 56.2483 146.781C56.1973 142.865 56.2279 138.948 56.2279 135.031L56.233 135.036ZM12.4395 134.97C12.4395 130.829 12.4242 126.693 12.4548 122.551C12.4599 121.741 12.062 121.118 11.465 120.858C10.0618 120.256 8.20968 121.909 8.21478 123.347C8.24539 131.181 8.23519 139.009 8.22499 146.842C8.22499 147.556 8.19437 148.163 8.94952 148.658C9.39853 148.949 9.771 148.913 10.1741 148.918C11.9599 148.949 12.4446 148.464 12.4446 146.71C12.4446 142.793 12.4446 138.876 12.4446 134.96L12.4395 134.97ZM19.5063 134.909C19.5063 132.17 19.5063 129.431 19.5063 126.693C19.5063 126.417 19.6134 125.938 19.3583 125.907C18.4552 125.8 17.945 124.867 16.8939 124.959C16.2102 125.02 15.8938 125.566 15.353 125.652C14.5723 125.775 14.5417 126.234 14.5417 126.861C14.557 132.15 14.5519 137.433 14.5519 142.722C14.5519 144.068 15.1948 144.721 16.5265 144.726C16.9704 144.726 17.4194 144.726 17.8633 144.726C18.7562 144.711 19.5114 143.946 19.5114 143.038C19.5114 140.33 19.5114 137.622 19.5114 134.919L19.5063 134.909ZM44.9517 134.393C44.9517 137.321 44.967 140.253 44.9415 143.181C44.9364 143.9 45.4517 144.491 45.8497 144.624C46.5895 144.869 47.6151 145.027 48.2427 144.553C48.8091 144.129 49.207 143.38 49.1968 142.451C49.1356 137.229 49.1713 132.012 49.1662 126.789C49.1662 125.795 48.4162 125.03 47.4416 125.025C46.9314 125.025 46.4161 125.076 45.916 125.025C45.1507 124.943 44.9364 125.254 44.9466 125.994C44.9823 128.794 44.9619 131.599 44.9568 134.399L44.9517 134.393Z" fill="#FDA621"/>
<path d="M0 154.666C0.0816376 154.798 0.229606 154.931 0.229606 155.058C0.229606 156.481 1.0868 157.496 1.92869 158.465C2.30116 158.894 2.61751 159.475 3.33183 159.603C3.98493 159.72 4.42374 160.434 5.2146 160.347C5.40849 160.327 5.34216 160.719 5.39828 160.923C3.88799 161.066 2.88793 160.113 1.94399 159.184C1.68378 158.929 1.25008 158.532 1.10721 158.475C0.250015 158.154 0.668408 157.109 0 156.767C0 156.068 0 155.364 0 154.666Z" fill="#CDE1EC"/>
<path d="M59.7893 109.521C59.3199 109.577 59.029 109.271 58.6566 109.057C58.0545 108.71 57.2993 108.853 56.6054 108.848C56.2278 108.848 55.8452 108.817 55.4676 108.797C55.4676 104.809 55.4676 100.816 55.4676 96.8275C55.4676 96.3124 55.5339 95.7565 54.7533 95.7667C54.7277 94.9558 54.7022 94.1449 54.6767 93.334C54.5441 92.8546 55.1768 92.0743 54.1308 91.957C54.1155 91.7225 54.1002 91.493 54.0849 91.2584C53.9879 90.6617 54.6002 89.7539 53.3807 89.657C53.3705 89.4785 53.3552 89.2949 53.345 89.1164C53.3246 88.5452 53.4573 87.8975 52.6409 87.7292L52.6256 87.6833C52.595 86.4644 52.0847 85.6382 51.253 85.4546C51.3041 84.8732 50.8347 84.608 50.5132 84.251C50.4979 83.4707 50.2887 82.8639 49.3193 82.9812C49.0641 82.5018 48.8958 82.0122 48.2069 81.8796C47.7784 81.7929 47.3446 81.4104 47.2273 80.8749C47.3498 80.8494 47.4977 80.7678 47.5998 80.8086C48.3906 81.1146 48.3906 81.1197 48.3906 80.166C48.3906 56.334 48.3906 32.507 48.4059 8.67502C48.4059 8.10893 48.0794 7.35414 49.0182 7.12464C49.0743 7.10934 49.1254 6.96144 49.1254 6.87984C49.1305 5.80375 49.8244 5.06426 50.3805 4.24827C50.6612 3.83518 50.5744 3.34048 51.0541 2.86109C51.6765 2.2287 52.4572 2.1369 53.1052 1.7544C53.8655 1.30051 54.6971 0.617115 55.7533 0.918011C57.4473 -0.576271 59.4831 0.234619 61.3353 0.229519C84.9235 0.15812 108.507 0.17852 132.095 0.17852C132.38 0.17852 132.671 0.20912 132.957 0.17852C133.544 0.122421 133.789 0.372318 133.712 0.948611C132.84 0.826213 131.982 0.765013 131.079 0.892512C130.36 0.99961 130.161 1.31581 130.095 1.8921C130.059 2.1726 130.084 2.46329 130.084 2.74889C130.084 12.8111 130.084 22.8733 130.084 32.9303C130.084 33.9656 129.875 35.0162 130.85 35.8781C131.753 36.6737 132.508 37.4897 133.891 37.4795C142.238 37.4336 150.58 37.5356 158.928 37.4183C162.25 37.3724 165.638 38.0966 168.903 36.8828C168.908 38.6372 168.918 40.3864 168.918 42.1408C168.918 76.1931 168.918 110.251 168.918 144.303C168.918 144.986 169.076 145.726 168.291 146.164C168.194 146.215 168.158 146.45 168.163 146.598C168.194 147.562 167.413 148.148 167.071 148.939C167.025 149.051 166.791 149.143 166.831 149.301C167.066 150.254 166.214 150.509 165.755 151.025C165.24 151.606 164.581 151.703 163.847 151.886C162.974 152.106 162.127 152.371 161.214 152.463C160.678 152.519 160.142 152.565 159.601 152.565C127.952 152.57 96.3068 152.57 64.6569 152.575C64.6416 151.591 64.6212 150.601 64.6212 149.617C64.6212 137.938 64.6161 126.254 64.611 114.575C64.7181 114.04 64.6212 113.673 63.9528 113.764C63.9324 113.555 63.9171 113.346 63.8967 113.132C64.1263 112.484 63.4732 112.245 63.2691 111.796C62.5905 110.307 61.2996 109.741 59.7842 109.526L59.7893 109.521ZM85.699 78.9522C85.6327 78.8859 85.5714 78.8247 85.5051 78.7584C84.8061 77.9373 83.7703 77.9628 83.2295 78.8145C83.1733 78.8655 83.1223 78.9165 83.0662 78.9624C82.7856 78.9267 82.6427 79.044 82.6427 79.3296C81.8314 79.9977 81.8314 81.135 82.6427 81.8082C82.6376 82.0683 82.7601 82.1958 83.0254 82.1907C83.0866 82.2519 83.1529 82.3182 83.2142 82.3794C83.7295 83.1035 84.403 83.0526 85.1275 82.7721C85.0714 83.1087 84.9847 83.4401 84.9592 83.7818C84.903 84.5774 84.852 85.3781 85.8878 85.6331C86.0154 85.6382 86.1429 85.6484 86.2756 85.6535C86.2756 85.9187 86.2552 86.1941 86.6378 86.2145C87.2756 86.2094 87.9083 86.1992 88.5461 86.1992C109.66 86.1992 130.773 86.1992 151.887 86.1992C152.315 86.2349 152.723 86.2502 152.642 85.6178C153.31 85.7198 153.535 85.424 153.377 84.7916C153.377 84.3887 153.382 83.9858 153.387 83.588C153.525 82.9913 153.326 82.6854 152.683 82.7568L152.667 82.7415C152.749 82.0938 152.428 81.9102 151.846 82.0326C151.688 82.0326 151.53 82.0428 151.366 82.0428C130.987 82.0428 110.604 82.0428 90.2248 82.0428C88.9849 82.0428 87.7399 82.0632 86.5001 82.0683C86.4848 82.0224 86.4695 81.9816 86.449 81.9408C86.4031 81.1962 86.9491 80.4057 86.2705 79.707C86.2807 79.4265 86.2858 79.1511 85.8878 79.1358C85.8266 79.0695 85.7602 79.0032 85.699 78.942V78.9522ZM152.045 121.435C152.152 120.568 151.489 120.833 151.086 120.833C137.85 120.823 124.62 120.823 111.384 120.823C111.195 120.823 111.002 120.823 110.813 120.828C110.405 120.828 110.369 121.108 110.389 121.419C109.813 121.358 109.792 121.965 109.466 122.179C108.741 122.659 108.92 123.383 109.119 123.918C109.302 124.413 109.573 125.107 110.369 125.071C110.267 125.994 110.94 125.79 111.44 125.79C124.548 125.79 137.656 125.79 150.759 125.79C150.948 125.79 151.142 125.78 151.331 125.79C151.856 125.821 152.096 125.566 152.075 125.045C152.484 125.061 152.703 124.887 152.693 124.459C153.53 124.546 153.453 124 153.387 123.459C153.387 123.296 153.387 123.133 153.382 122.97C153.366 122.184 152.774 121.506 152.035 121.435H152.045ZM85.7041 102.473C85.1377 102.392 84.8265 102.616 84.949 103.202C85.0663 103.779 84.4744 104.722 85.7041 104.758C85.6582 105.319 86.0919 105.319 86.4542 105.395C86.3623 106.344 87.0715 106.094 87.5512 106.094C108.741 106.099 129.931 106.099 151.121 106.094C151.407 106.094 151.698 106.079 151.984 106.094C152.637 106.125 152.764 105.814 152.555 105.258L152.591 105.227C153.346 105.502 153.504 105.145 153.377 104.482C153.382 104.08 153.387 103.677 153.392 103.274C153.382 102.463 152.795 101.8 152.04 101.744C152.142 100.78 151.397 101.142 150.999 101.142C130.702 101.127 110.405 101.127 90.1125 101.127C89.1227 101.127 88.1226 101.025 87.1532 101.162C86.5001 101.259 85.7041 101.494 85.7143 102.463L85.7041 102.473ZM77.025 66.1514C77.525 66.4574 78.0812 66.335 78.6067 66.335C102.654 66.34 126.696 66.335 150.744 66.3503C151.417 66.3503 151.984 66.2482 152.448 65.7485C153.055 65.8046 153.591 65.7842 153.371 64.9223C153.397 64.1522 153.397 63.3923 152.642 62.9027C152.744 62.2448 152.448 62.0255 151.831 62.1632C151.642 62.1632 151.448 62.1734 151.259 62.1734C126.63 62.1734 102.001 62.1785 77.372 62.1836C76.9995 62.1377 76.7495 62.102 76.4689 62.561C76.1627 63.0557 75.8719 63.8156 74.9688 63.6932C74.6626 63.6524 74.4789 63.9533 74.8055 64.1726C75.6423 64.7336 76.1015 65.7077 77.0301 66.1564L77.025 66.1514Z" fill="#CDE1EC"/>
<path d="M168.903 36.8727C165.637 38.0864 162.25 37.3623 158.928 37.4081C150.586 37.5305 142.238 37.4235 133.891 37.4693C132.508 37.4744 131.758 36.6585 130.85 35.868C129.87 35.0112 130.084 33.9606 130.084 32.9202C130.079 22.858 130.084 12.7958 130.084 2.73876C130.084 2.45316 130.064 2.16247 130.095 1.88197C130.161 1.30568 130.36 0.989481 131.079 0.882382C131.982 0.749784 132.834 0.810983 133.712 0.938482C133.778 1.76467 134.227 2.20837 135.049 2.27467C134.962 2.87646 135.222 3.12636 135.819 3.03456C136.141 3.60575 136.222 4.41664 137.161 4.37074C137.069 4.97253 137.33 5.22753 137.932 5.13063C138.61 5.03373 138.707 5.75793 139.121 6.04352C139.973 6.63001 140.565 7.5735 141.376 8.2365C142.33 9.01679 143.126 9.96028 144.014 10.7967C144.84 11.577 145.779 12.3368 146.402 13.3466C146.57 13.6169 146.861 13.4996 147.096 13.571C147.085 13.9841 147.096 14.3921 147.698 14.2952C147.83 15.152 148.417 15.5141 149.203 15.6569C149.8 15.9527 150.269 16.376 150.55 16.9931C150.468 17.5745 150.723 17.8295 151.3 17.7632C151.366 17.8295 151.433 17.8958 151.494 17.9621C151.535 18.314 151.795 18.5945 151.958 18.8393C152.285 19.3238 152.667 19.9205 153.428 19.844C154.101 19.7471 154.229 20.4559 154.606 20.7517C155.933 21.7819 156.918 23.1997 158.28 24.2248C158.504 24.3931 158.484 24.8929 158.958 24.8368C158.984 25.0765 158.867 25.4131 159.142 25.5253C159.739 25.7701 159.984 26.4025 160.413 26.7034C160.877 27.0247 161.071 27.8203 161.836 27.703C162.086 27.907 162.331 28.1059 162.581 28.3099C162.79 29.2431 163.311 29.8602 164.301 29.9979C165.148 30.8292 166.03 31.6452 166.949 32.3694C168.469 33.5679 169.296 34.9194 168.908 36.8727H168.903Z" fill="#ADCBDD"/>
<path d="M54.6818 93.3339C54.7073 94.1448 54.7328 94.9557 54.7583 95.7666C54.7481 100.107 54.7328 104.452 54.7226 108.792L54.692 108.868C53.2991 108.756 51.9061 108.777 50.5132 108.863L50.4877 108.777C50.4877 104.589 50.4775 100.402 50.4775 96.2154C50.4775 95.7564 50.503 95.3025 49.8448 95.3076L49.7631 93.4716C49.7886 93.4155 49.8448 93.3492 49.8295 93.3033C49.4672 92.2629 49.1151 91.2276 49.0284 90.1158C49.0029 89.7741 48.6304 89.9118 48.4059 89.8506H48.3855C48.3651 89.5956 48.3447 89.3457 48.3243 89.0907C48.3804 88.3003 47.7273 88.1167 47.2273 87.8056C46.5486 86.5153 45.3496 85.6483 44.5077 84.4906C44.5893 84.4447 44.6659 84.4039 44.7475 84.358C44.2169 84.2356 44.125 83.4094 43.4311 83.5471C43.1964 83.3941 42.7576 83.5828 42.7219 83.1034C42.6913 82.6546 42.3086 82.8484 42.0739 82.7617C41.9259 81.8947 41.0177 81.3541 39.788 81.3949C39.6707 81.3949 39.5533 81.3847 39.436 81.3796C39.2625 80.3749 38.4818 80.7268 37.8798 80.6809C37.6297 80.6707 37.3848 80.6554 37.1348 80.6452C37.1654 79.9823 36.8542 79.7069 36.1909 79.7681C35.7929 79.8038 35.3898 79.7834 34.9867 79.7885C33.1448 79.6865 31.3028 79.6865 29.4609 79.7834C28.9455 79.7273 28.4353 79.712 27.9302 79.8497C27.4812 79.8089 26.8842 79.5641 26.6852 80.1148C26.4964 80.6299 26.1444 80.635 25.7974 80.6299C24.9249 80.6146 24.333 81.1093 23.7411 81.6346L23.7207 81.655C23.0829 81.7978 22.3431 81.8029 22.3329 82.7413C22.0931 82.7719 21.8533 82.7974 21.6186 82.828C20.8328 82.8943 20.4042 83.3533 20.2256 84.0877C19.7715 84.154 19.3939 84.2866 19.5062 84.868H19.5011C18.95 84.7813 18.7153 85.0363 18.7306 85.5718C17.9755 85.7452 17.5367 86.2144 17.4346 86.9845L17.4142 87.0151C16.5621 87.4996 16.3019 88.3665 16.0111 89.208C15.9958 89.3967 15.9754 89.5803 15.9601 89.769C15.7764 89.8149 15.4345 89.8659 15.4345 89.9118C15.4498 90.942 14.2151 91.5897 14.5773 92.7168C14.5569 93.1605 14.5314 93.6042 14.511 94.0479C13.5211 94.2621 14.1028 95.0475 13.965 95.5677C13.8579 99.9689 13.8834 104.37 13.9497 108.771L13.8936 108.838C12.465 108.838 11.0363 108.843 9.60254 108.848L9.56682 108.777C9.56172 104.314 9.55662 99.8516 9.55151 95.3892C9.58213 94.818 9.56172 94.2417 9.65356 93.6858C9.76071 93.033 9.42396 92.268 10.2403 91.7478C10.4648 91.605 10.3322 90.9114 10.3679 90.4728C11.2455 90.3147 10.9904 89.6211 11.0363 89.0703C11.0924 88.8255 11.1485 88.5808 11.2047 88.336C11.3782 88.0912 11.5516 87.8413 11.72 87.5965C11.7302 87.4282 11.7455 87.265 11.7557 87.0967C12.3323 87.0865 12.5007 86.7448 12.4496 86.2348C12.6486 86.1685 12.618 85.99 12.6384 85.837C13.266 85.7758 13.1793 85.2964 13.1895 84.8833H13.2099C13.7763 84.9598 13.8477 84.6181 13.812 84.1846L13.8324 84.1591C14.2661 84.0724 14.2712 83.6083 14.5314 83.3737C14.5314 82.726 15.2049 82.5679 15.5111 82.1293C16.0876 81.3082 17.3479 81.0634 17.5826 79.8598C17.5928 79.7987 17.8683 79.7833 18.0214 79.7477C18.3071 79.6814 18.5368 79.5692 18.797 79.406C19.4093 79.0235 19.8532 78.2585 20.5573 78.2126C21.1338 78.1718 20.894 77.825 21.0267 77.6261C21.7563 77.3915 22.5115 77.0855 23.0983 76.6979C23.5268 76.4123 23.8993 76.5347 24.2616 76.4072C25.2719 76.0553 26.1852 75.326 27.3485 75.4943C28.0475 75.4739 28.7465 75.4535 29.4456 75.4331C31.2977 75.4331 33.1499 75.4382 35.0071 75.4433C35.5174 75.4586 36.0276 75.4739 36.5327 75.4892C36.9715 75.5147 37.4052 75.5351 37.844 75.5606C38.14 76.448 38.7318 76.3562 39.3952 76.0247C40.4513 76.1879 41.2524 77.0651 42.3749 77.0702C42.8341 77.0702 42.4821 77.8607 43.0331 77.8352C43.0637 78.6869 43.9515 78.3452 44.3801 78.7073C44.8649 79.1102 45.4618 79.7324 46.2629 79.7324L46.2782 79.7426C46.2782 80.2576 46.3241 80.7319 47.0283 80.6809C47.0946 80.7472 47.1558 80.8186 47.2222 80.8849C47.3395 81.4255 47.7732 81.808 48.2018 81.8896C48.8906 82.0273 49.059 82.5118 49.3141 82.9912C49.6713 83.4553 49.7172 84.2101 50.5081 84.2611C50.8295 84.6181 51.2989 84.8782 51.2479 85.4647C51.2326 86.1022 51.9929 86.4286 51.9163 87.0814C51.8551 87.6424 52.2225 87.673 52.6153 87.6934L52.6306 87.7393C52.6868 88.29 52.3398 89.0448 53.3348 89.1264C53.345 89.3049 53.3603 89.4885 53.3705 89.667C53.447 90.2688 53.1052 91.0593 54.0746 91.2684C54.0899 91.503 54.1052 91.7325 54.1205 91.9671C54.2481 92.4465 53.7174 93.1911 54.6665 93.3441L54.6818 93.3339Z" fill="#636668"/>
<path d="M9.55663 95.3943C9.56173 99.8567 9.56683 104.319 9.57194 108.782C9.37294 108.782 9.17905 108.782 8.98006 108.782C8.98006 104.63 8.98006 100.479 8.99027 96.3276C8.99027 95.9349 8.78617 95.3535 9.55153 95.3994L9.55663 95.3943Z" fill="#CDE1EC"/>
<path d="M35.0122 75.428C33.1601 75.428 31.3079 75.4229 29.4507 75.4178C29.4507 75.2342 29.4507 75.0557 29.4507 74.8721C31.2926 74.7447 33.1397 74.6988 34.9867 74.7752C34.9969 74.9945 35.002 75.2138 35.0122 75.428Z" fill="#ADCBDD"/>
<path d="M46.2732 79.7171C45.4722 79.7171 44.8701 79.0898 44.3905 78.692C43.9619 78.335 43.069 78.6716 43.0435 77.8199C43.5231 77.5649 43.8751 77.4527 44.2986 78.0545C44.6201 78.5084 45.3701 78.4778 45.8651 78.9164C46.1763 79.1918 46.2783 79.3754 46.2783 79.7171H46.2732Z" fill="#ADCBDD"/>
<path d="M161.836 27.7028C161.076 27.8201 160.877 27.0296 160.413 26.7032C159.984 26.4074 159.739 25.7699 159.142 25.5251C158.867 25.4129 158.984 25.0815 158.959 24.8367C159.51 24.6531 159.704 25.1376 159.994 25.4078C160.607 25.9739 161.204 26.5451 161.78 27.1469C161.882 27.254 161.821 27.509 161.836 27.6926V27.7028Z" fill="#CDE1EC"/>
<path d="M21.0318 77.6211C20.8991 77.8251 21.1389 78.1668 20.5624 78.2076C19.8583 78.2586 19.4143 79.0185 18.8021 79.401C18.5418 79.5642 18.3071 79.6764 18.0265 79.7427C17.8173 78.8757 18.7 78.6513 19.0776 78.4881C19.7256 78.2076 20.292 77.6823 21.0369 77.6211H21.0318Z" fill="#ADCBDD"/>
<path d="M29.456 74.8774C29.456 75.061 29.456 75.2395 29.456 75.4231C28.7569 75.4435 28.0579 75.4639 27.3589 75.4843C27.6446 74.755 28.2314 74.5867 29.456 74.8774Z" fill="#CDE1EC"/>
<path d="M164.301 29.9978C163.311 29.855 162.79 29.243 162.581 28.3097C162.913 28.2587 163.143 28.3403 163.352 28.6565C163.617 29.0594 163.923 29.4419 164.423 29.6612C164.826 29.8346 164.515 29.9468 164.301 29.9978Z" fill="#CDE1EC"/>
<path d="M153.428 19.8541C152.662 19.9306 152.285 19.3339 151.958 18.8494C151.79 18.6046 151.53 18.3242 151.494 17.9723C151.683 18.0182 151.917 17.7224 152.06 18.0437C152.285 18.5486 152.627 18.9361 153.157 19.1299C153.53 19.2676 153.382 19.594 153.428 19.8541Z" fill="#CDE1EC"/>
<path d="M35.0123 75.4282C35.0021 75.2089 34.997 74.9896 34.9868 74.7754C35.5634 74.8723 36.4461 74.3011 36.5379 75.4741C36.0277 75.4588 35.5175 75.4435 35.0123 75.4282Z" fill="#CDE1EC"/>
<path d="M149.203 15.662C148.417 15.5243 147.836 15.1622 147.698 14.3003C148.422 14.5043 149.152 14.7083 149.203 15.662Z" fill="#CDE1EC"/>
<path d="M39.4002 76.0147C38.7369 76.3411 38.1451 76.438 37.8491 75.5506C38.4002 75.5914 39.0941 75.1579 39.4002 76.0147Z" fill="#ADCBDD"/>
<path d="M11.0363 89.0706C10.9955 89.6265 11.2455 90.3149 10.3679 90.473C10.4444 89.9375 9.85255 89.0808 11.0363 89.0706Z" fill="#CDE1EC"/>
<path d="M58.325 160.944C58.5086 160.179 59.1158 160.286 59.672 160.286C59.6822 161.449 58.8148 160.811 58.325 160.944Z" fill="#CDE1EC"/>
<path d="M47.0384 80.6658C46.3343 80.7168 46.2833 80.2425 46.2884 79.7274C47.1252 79.5693 47.0844 80.115 47.0384 80.6658Z" fill="#ADCBDD"/>
<path d="M60.3404 160.225C60.3353 159.597 60.6669 159.45 61.2129 159.608C61.2792 160.317 60.7588 160.204 60.3404 160.225Z" fill="#CDE1EC"/>
<path d="M13.1947 84.8782C13.1844 85.2964 13.2712 85.7707 12.6436 85.8319C12.1946 85.1485 12.4242 84.8578 13.1947 84.8782Z" fill="#CDE1EC"/>
<path d="M12.4549 86.2298C12.5008 86.7449 12.3375 87.0866 11.761 87.0917C11.5518 86.4491 11.7405 86.1278 12.4549 86.2298Z" fill="#CDE1EC"/>
<path d="M151.3 17.7682C150.718 17.8345 150.468 17.5744 150.55 16.9981C151.147 16.9165 151.417 17.1562 151.3 17.7682Z" fill="#CDE1EC"/>
<path d="M63.9579 155.987C63.815 155.431 64.0701 155.191 64.6059 155.186C64.7283 155.727 64.6314 156.089 63.9579 155.987Z" fill="#CDE1EC"/>
<path d="M147.692 14.3001C147.085 14.397 147.08 13.989 147.09 13.5759C147.703 13.4739 147.687 13.8972 147.692 14.3001Z" fill="#CDE1EC"/>
<path d="M13.817 84.1746C13.8528 84.6132 13.7762 84.9548 13.215 84.8732C13.1793 84.4398 13.169 84.0216 13.817 84.1746Z" fill="#ADCBDD"/>
<path d="M14.5366 83.3637C14.2764 83.5983 14.2713 84.0624 13.8376 84.1491C13.659 83.5218 13.9346 83.2974 14.5366 83.3637Z" fill="#ADCBDD"/>
<path d="M11.7253 87.5914C11.5518 87.8362 11.3783 88.0861 11.21 88.3309C10.9548 88.2391 10.8732 88.0657 10.9957 87.826C11.1538 87.52 11.4447 87.5506 11.7253 87.5863V87.5914Z" fill="#CDE1EC"/>
<path d="M32.8745 147.577C32.451 147.577 32.0275 147.577 31.5989 147.577C31.5734 147.042 31.354 146.746 30.7672 146.894C30.4152 146.802 29.9866 146.797 30.058 146.246C30.0529 144.135 30.0325 142.023 30.0529 139.907C30.058 139.346 29.91 139.06 29.3131 139.132L29.2825 139.177L29.308 139.132C29.2978 138.035 28.4508 138.535 27.9303 138.407C27.8895 138.198 27.9814 137.811 27.8028 137.811C27.0374 137.79 26.6905 137.046 26.0374 136.872C26.0068 136.607 25.8894 136.332 25.6343 136.327C25.0679 136.316 25.1445 135.888 25.0475 135.562C25.1189 135.133 24.9557 134.914 24.5067 134.939C24.476 134.705 24.4454 134.475 24.4148 134.241C24.5424 133.69 24.3842 133.363 23.7617 133.389C23.7617 131.767 23.7617 130.145 23.7617 128.529C24.2005 128.534 24.3332 128.233 24.4148 127.881C24.4965 127.539 24.8026 127.213 24.8689 126.994C25.0883 126.269 25.772 125.8 25.8333 125.03C26.466 125.28 26.5272 124.53 26.9507 124.393C28.1804 123.985 29.1192 122.944 30.456 122.766C30.7877 122.72 30.803 122.445 30.8795 122.205C31.7928 122.205 32.701 122.21 33.6144 122.215C33.8133 123.041 34.4715 122.878 35.0532 122.878C35.242 122.888 35.4308 122.904 35.6247 122.914C35.6706 123.235 35.6604 123.475 36.0839 123.694C36.6809 124 37.2778 124.474 37.8493 124.755C38.4208 125.03 38.3799 126.055 39.2473 125.785V125.79C39.2473 126.198 39.0841 126.774 39.3749 126.963C39.9923 127.371 39.9872 127.952 40.0025 128.513C40.0178 129.039 40.2729 129.222 40.7066 129.319C40.5842 130.416 40.6454 131.512 40.7066 132.609C39.6453 132.787 40.0892 133.624 40.0025 134.225C39.4719 135.169 39.2576 136.327 38.1248 136.842C37.9054 136.944 37.7319 137.143 37.5381 137.296C37.1809 137.704 36.2625 137.525 36.3645 138.418C34.6858 138.418 34.2726 138.841 34.2828 140.458C34.2981 142.008 34.2828 143.563 34.293 145.114C34.293 145.925 34.1093 146.618 33.2164 146.873C32.8133 146.985 32.9868 147.337 32.8949 147.582L32.8745 147.577Z" fill="#636668"/>
<path d="M56.2329 135.036C56.2329 138.953 56.2023 142.87 56.2533 146.786C56.2635 147.745 55.9319 148.464 55.1614 148.882C54.3859 149.301 52.4368 148.765 51.9674 148.148C51.799 147.924 51.8398 147.664 51.8398 147.414C51.8398 138.973 51.8398 130.538 51.8398 122.098C51.8398 121.225 52.2174 120.792 53.1001 120.817C53.6409 120.833 54.1818 120.817 54.7226 120.817C55.5084 120.812 55.84 121.338 56.0543 121.975C56.2278 122.49 56.238 123.031 56.238 123.577C56.2278 127.396 56.238 131.216 56.238 135.041L56.2329 135.036Z" fill="#CF871B"/>
<path d="M12.4396 134.975C12.4396 138.892 12.4396 142.808 12.4396 146.725C12.4396 148.474 11.96 148.964 10.169 148.933C9.76594 148.928 9.38837 148.964 8.94447 148.673C8.18422 148.179 8.21483 147.567 8.21993 146.858C8.22503 139.024 8.24034 131.196 8.20973 123.362C8.20462 121.924 10.0568 120.277 11.4599 120.874C12.062 121.134 12.46 121.756 12.4498 122.567C12.4192 126.708 12.4345 130.844 12.4396 134.985V134.975Z" fill="#CF871B"/>
<path d="M19.5063 134.914C19.5063 137.622 19.5063 140.33 19.5063 143.033C19.5063 143.941 18.7512 144.706 17.8583 144.721C17.4143 144.726 16.9653 144.726 16.5214 144.721C15.1897 144.716 14.5468 144.068 14.5468 142.717C14.5468 137.428 14.5519 132.144 14.5366 126.856C14.5366 126.229 14.5672 125.77 15.3479 125.647C15.8887 125.56 16.2051 125.02 16.8888 124.954C17.9399 124.857 18.4501 125.795 19.3532 125.902C19.6084 125.933 19.5012 126.412 19.5012 126.688C19.5063 129.426 19.5012 132.165 19.5063 134.904V134.914Z" fill="#CF871B"/>
<path d="M44.9516 134.399C44.9516 131.599 44.972 128.794 44.9363 125.994C44.9261 125.255 45.1455 124.944 45.9057 125.025C46.4109 125.076 46.9262 125.025 47.4313 125.025C48.4059 125.035 49.1559 125.8 49.1559 126.79C49.1559 132.012 49.1253 137.234 49.1866 142.452C49.1968 143.38 48.7988 144.13 48.2324 144.553C47.6048 145.027 46.5843 144.864 45.8394 144.624C45.4465 144.497 44.9261 143.9 44.9312 143.181C44.9567 140.254 44.9414 137.321 44.9414 134.394L44.9516 134.399Z" fill="#CF871B"/>
<path d="M49.7784 108.792C49.7682 104.482 49.758 100.173 49.7529 95.8636C49.7529 95.68 49.8142 95.4913 49.8499 95.3077C50.503 95.3026 50.4826 95.7565 50.4826 96.2154C50.4826 100.402 50.4877 104.59 50.4928 108.777C50.2581 108.777 50.0183 108.787 49.7835 108.792H49.7784Z" fill="#ADCBDD"/>
<path d="M54.7227 108.792C54.7329 104.452 54.7482 100.107 54.7584 95.7667C55.5339 95.7565 55.4727 96.3124 55.4727 96.8275C55.4727 100.816 55.4727 104.809 55.4727 108.797C55.2227 108.797 54.9778 108.797 54.7278 108.792H54.7227Z" fill="#ADCBDD"/>
<path d="M32.8745 147.577C32.9663 147.337 32.7928 146.985 33.1959 146.868C34.0888 146.613 34.2776 145.919 34.2725 145.109C34.2725 143.558 34.2776 142.003 34.2623 140.452C34.247 138.831 34.6654 138.412 36.3441 138.412C36.4104 138.887 36.0686 139.05 35.7216 139.08C35.0175 139.147 34.9767 139.565 34.9869 140.131C35.0124 141.906 35.0073 143.676 34.992 145.45C34.9818 146.618 33.9817 147.602 32.8694 147.577H32.8745Z" fill="#CF871B"/>
<path d="M14.5214 95.5779C14.5214 99.9791 14.5265 104.385 14.5316 108.787C14.3377 108.787 14.1438 108.776 13.9499 108.776C13.8887 104.375 13.8581 99.974 13.9652 95.5728C14.1489 95.5728 14.3326 95.5728 14.5163 95.5728L14.5214 95.5779Z" fill="#CDE1EC"/>
<path d="M29.3129 139.131C29.9048 139.06 30.0578 139.346 30.0527 139.907C30.0323 142.018 30.0527 144.129 30.0578 146.246C29.4813 146.287 29.267 146.001 29.2721 145.44C29.2976 143.339 29.3027 141.238 29.3129 139.137V139.131Z" fill="#CF871B"/>
<path d="M30.8642 122.2C30.7876 122.434 30.7774 122.715 30.4407 122.761C29.1038 122.939 28.165 123.98 26.9353 124.387C26.517 124.525 26.4557 125.275 25.8179 125.025C25.6189 124.209 26.4761 123.944 26.8078 123.801C27.5119 123.5 28.165 123.077 28.7977 122.715C29.4916 122.317 30.0886 122.067 30.854 122.2H30.8642Z" fill="#CF871B"/>
<path d="M59.7893 109.521C61.3047 109.735 62.5956 110.302 63.2742 111.791C63.4783 112.24 64.1314 112.479 63.9018 113.127C63.1007 113.096 62.9221 112.336 62.6874 111.857C62.2231 110.898 61.417 110.546 60.5496 110.194C60.2332 110.067 59.7689 110.047 59.7944 109.521H59.7893Z" fill="#ADCBDD"/>
<path d="M9.60782 108.848C11.0365 108.848 12.4702 108.838 13.8989 108.838C14.0418 109.333 13.8632 109.547 13.3427 109.542C12.2968 109.526 11.2457 109.521 10.1946 109.542C9.67925 109.552 9.49046 109.348 9.60782 108.853V108.848Z" fill="#CF871B"/>
<path d="M50.5133 108.858C51.9062 108.772 53.2991 108.751 54.6921 108.863C54.7737 109.353 54.5798 109.552 54.0696 109.542C53.0899 109.516 52.1052 109.516 51.1255 109.542C50.6051 109.557 50.4418 109.333 50.5081 108.858H50.5133Z" fill="#CF871B"/>
<path d="M39.2269 125.775C38.3595 126.045 38.4003 125.025 37.8289 124.745C37.2574 124.469 36.6604 123.99 36.0635 123.684C35.6349 123.465 35.6502 123.225 35.6042 122.904C36.5278 123.021 37.1962 123.582 37.9003 124.133C38.2677 124.418 38.6248 124.694 38.9667 125.015C39.232 125.265 39.1861 125.51 39.232 125.775H39.2269Z" fill="#CF871B"/>
<path d="M40.6912 129.309C40.2575 129.217 40.0024 129.034 39.9871 128.503C39.9718 127.942 39.9769 127.361 39.3595 126.953C39.0687 126.759 39.232 126.183 39.232 125.78C39.7065 125.754 40.0381 125.882 39.9871 126.458C39.9718 126.637 39.9871 126.907 40.0943 126.994C40.8953 127.621 40.7474 128.473 40.6963 129.309H40.6912Z" fill="#CF871B"/>
<path d="M25.823 125.025C25.7618 125.795 25.073 126.264 24.8587 126.988C24.7923 127.208 24.4862 127.534 24.4046 127.876C24.3178 128.228 24.1903 128.529 23.7515 128.523C23.5168 127.05 24.7056 126.203 25.2822 125.086C25.3281 124.994 25.6393 125.04 25.8281 125.025H25.823Z" fill="#CF871B"/>
<path d="M26.0372 136.872C26.6954 137.046 27.0372 137.79 27.8026 137.811C27.9812 137.811 27.8944 138.198 27.9301 138.407C26.9709 138.764 26.5423 137.913 25.9351 137.505C25.7208 137.362 25.8025 137.051 26.0321 136.867L26.0372 136.872Z" fill="#CF871B"/>
<path d="M39.9872 134.215C40.0739 133.613 39.6351 132.777 40.6913 132.598C40.6607 133.226 40.9056 133.975 39.9872 134.215Z" fill="#CF871B"/>
<path d="M27.9302 138.407C28.4506 138.535 29.2976 138.04 29.3078 139.131C28.7619 139.06 27.8843 139.611 27.9302 138.407Z" fill="#CF871B"/>
<path d="M35.0326 122.873C34.4509 122.873 33.7978 123.031 33.5938 122.21C34.1448 122.276 34.9867 121.71 35.0326 122.873Z" fill="#CF871B"/>
<path d="M36.3492 138.412C36.2472 137.525 37.1605 137.698 37.5228 137.29C37.5228 138.065 37.135 138.448 36.3492 138.412Z" fill="#CF871B"/>
<path d="M30.7671 146.893C31.3538 146.746 31.5732 147.041 31.5988 147.577C31.0477 147.684 30.7058 147.531 30.7671 146.893Z" fill="#CF871B"/>
<path d="M63.9579 113.759C64.6263 113.662 64.7233 114.035 64.6161 114.57C64.1365 114.514 63.7895 114.346 63.9579 113.759Z" fill="#ADCBDD"/>
<path d="M23.7565 133.384C24.379 133.358 24.5422 133.685 24.4096 134.235C23.782 134.266 23.634 133.929 23.7565 133.384Z" fill="#CF871B"/>
<path d="M24.5015 134.934C24.9505 134.909 25.1189 135.128 25.0424 135.556C24.5883 135.582 24.4199 135.368 24.5015 134.934Z" fill="#CF871B"/>
<path d="M77.3721 62.1735C102.001 62.1735 126.63 62.1684 151.259 62.1633C151.448 62.1633 151.642 62.1531 151.831 62.1531C151.831 62.6988 152.086 62.9589 152.642 62.8926C153.397 63.3822 153.392 64.1421 153.372 64.9121C152.718 64.7999 152.683 65.3813 152.448 65.7383C151.984 66.2381 151.412 66.3401 150.744 66.3401C126.696 66.3248 102.654 66.335 78.6068 66.3248C78.0813 66.3248 77.5251 66.4421 77.0251 66.1412C77.071 65.9984 77.2037 65.7995 77.1527 65.723C76.2087 64.3562 76.224 64.0248 77.2598 62.7141C77.3619 62.5866 77.3363 62.352 77.3721 62.1684V62.1735Z" fill="#636668"/>
<path d="M86.4951 82.0733C87.7349 82.0631 88.9799 82.0478 90.2198 82.0478C110.599 82.0478 130.982 82.0478 151.361 82.0478C151.519 82.0478 151.678 82.0427 151.841 82.0376C151.882 82.5425 152.096 82.8536 152.662 82.7465L152.678 82.7618C152.611 83.2973 152.846 83.5727 153.382 83.5931C153.382 83.996 153.377 84.3989 153.372 84.7967C152.754 84.7406 152.616 85.1129 152.637 85.6229C152.229 85.6127 151.81 85.5923 151.882 86.2042C130.768 86.2042 109.655 86.2042 88.5411 86.2042C87.9033 86.2042 87.2706 86.2144 86.6328 86.2195C86.6277 85.9594 86.6838 85.6586 86.2705 85.6586C86.143 85.6535 86.0154 85.6433 85.8828 85.6382C85.6685 84.5009 85.2858 83.3432 86.4491 82.4405C86.5155 82.3895 86.4797 82.2008 86.4899 82.0733H86.4951Z" fill="#636668"/>
<path d="M86.4543 105.39C86.092 105.309 85.6532 105.314 85.7043 104.753C85.7043 103.993 85.7043 103.228 85.7043 102.468C85.9186 102.422 86.2604 102.443 86.3268 102.32C86.6839 101.616 87.3268 101.749 87.8983 101.749C109.277 101.744 130.656 101.749 152.035 101.749C152.29 102.432 152.622 103.044 153.387 103.279C153.382 103.682 153.377 104.085 153.372 104.488C152.841 104.452 152.586 104.707 152.586 105.232C152.586 105.232 152.55 105.263 152.555 105.263C151.953 105.299 151.351 105.37 150.749 105.37C130.845 105.375 110.946 105.375 91.0413 105.375C89.5157 105.375 87.985 105.385 86.4594 105.395L86.4543 105.39Z" fill="#636668"/>
<path d="M153.387 122.97C153.387 123.133 153.387 123.296 153.392 123.459C152.698 123.469 152.642 123.928 152.698 124.459C152.708 124.882 152.489 125.061 152.081 125.045C150.871 125.045 149.662 125.045 148.453 125.045C135.758 125.05 123.064 125.056 110.369 125.061C109.573 125.101 109.303 124.408 109.119 123.908C108.92 123.373 108.736 122.653 109.466 122.169C109.792 121.955 109.813 121.348 110.389 121.409C110.548 121.414 110.706 121.43 110.864 121.43C124.589 121.43 138.315 121.43 152.04 121.43C152.494 121.934 152.494 122.842 153.387 122.965V122.97Z" fill="#636668"/>
<path d="M86.4541 105.39C87.9797 105.385 89.5104 105.37 91.036 105.37C110.94 105.37 130.839 105.37 150.744 105.365C151.346 105.365 151.948 105.293 152.55 105.258C152.759 105.808 152.632 106.125 151.978 106.094C151.693 106.079 151.407 106.094 151.116 106.094C129.926 106.094 108.736 106.094 87.546 106.094C87.0664 106.094 86.3572 106.344 86.449 105.395L86.4541 105.39Z" fill="#ADCBDD"/>
<path d="M152.035 101.749C130.656 101.749 109.277 101.744 87.8982 101.749C87.3267 101.749 86.689 101.622 86.3267 102.32C86.2655 102.443 85.9185 102.422 85.7042 102.468C85.694 101.499 86.49 101.265 87.1431 101.168C88.1125 101.025 89.1126 101.132 90.1024 101.132C110.4 101.132 130.697 101.132 150.989 101.147C151.387 101.147 152.132 100.785 152.03 101.749H152.035Z" fill="#ADCBDD"/>
<path d="M110.369 125.066C123.063 125.061 135.758 125.056 148.453 125.051C149.662 125.051 150.871 125.051 152.081 125.051C152.101 125.566 151.866 125.821 151.336 125.795C151.147 125.785 150.953 125.795 150.764 125.795C137.656 125.795 124.548 125.795 111.445 125.795C110.94 125.795 110.272 125.999 110.374 125.076L110.369 125.066Z" fill="#ADCBDD"/>
<path d="M152.045 121.435C138.319 121.435 124.594 121.435 110.869 121.435C110.711 121.435 110.552 121.419 110.394 121.414C110.374 121.103 110.405 120.828 110.818 120.823C111.007 120.823 111.2 120.818 111.389 120.818C124.625 120.818 137.855 120.818 151.091 120.828C151.494 120.828 152.157 120.563 152.05 121.435H152.045Z" fill="#ADCBDD"/>
<path d="M83.0663 78.9625C83.1224 78.9115 83.1735 78.8605 83.2296 78.8146C83.9796 78.4117 84.7399 78.529 85.5052 78.7585C85.5716 78.8248 85.6328 78.886 85.6991 78.9523C85.7603 79.0135 85.8267 79.0798 85.8879 79.141C85.9083 79.4011 86.0104 79.6102 86.2706 79.7122C86.3522 80.5129 86.2145 81.2728 85.893 82.0071C85.8267 82.0734 85.7603 82.1397 85.6991 82.2009H85.7042C84.9032 82.6089 84.0715 82.6752 83.2194 82.3845C83.1581 82.3233 83.0918 82.257 83.0306 82.1958C82.9592 82.0122 82.8367 81.8796 82.6479 81.8133C82.3673 80.9872 82.3571 80.161 82.6479 79.3348C82.7908 79.2124 82.9285 79.09 83.0714 78.9676L83.0663 78.9625ZM83.3877 81.6399C84.0357 82.3641 84.6838 82.3284 85.3317 81.6399C86.0257 80.926 85.9389 80.2171 85.3317 79.5031C85.2705 79.4419 85.2042 79.3807 85.143 79.3144C84.4388 78.6973 83.7398 78.9217 83.2296 79.498C82.7295 80.0641 82.5612 80.7883 83.2041 81.4461L83.3929 81.6399H83.3877Z" fill="#ADCBDD"/>
<path d="M77.3721 62.1735C77.3364 62.3571 77.367 62.5917 77.2598 62.7192C76.2241 64.0248 76.2087 64.3614 77.1527 65.7282C77.2037 65.8047 77.071 66.0035 77.0251 66.1463C76.0965 65.6976 75.6373 64.7235 74.8005 64.1625C74.4739 63.9432 74.6576 63.6423 74.9638 63.6831C75.8669 63.8055 76.1577 63.0456 76.4639 62.5509C76.7496 62.0919 76.9996 62.1276 77.367 62.1735H77.3721Z" fill="#ADCBDD"/>
<path d="M86.4949 82.0733C86.4847 82.2008 86.5204 82.3895 86.4541 82.4405C85.2908 83.3381 85.6734 84.5009 85.8877 85.6382C84.852 85.3832 84.903 84.5825 84.9591 83.7869C84.9846 83.4503 85.0714 83.1137 85.1275 82.7771C85.5204 82.7771 85.7449 82.619 85.7041 82.1957H85.699C85.7653 82.1345 85.8316 82.0682 85.8928 82.007L86.449 81.9458C86.4694 81.9866 86.4847 82.0274 86.5 82.0733H86.4949Z" fill="#ADCBDD"/>
<path d="M85.7041 102.468C85.7041 103.228 85.7041 103.993 85.7041 104.753C84.4744 104.712 85.0663 103.769 84.9489 103.197C84.8316 102.616 85.1377 102.387 85.7041 102.468Z" fill="#ADCBDD"/>
<path d="M52.6308 87.6833C52.238 87.6629 51.8655 87.6323 51.9318 87.0713C52.0033 86.4134 51.2481 86.0921 51.2634 85.4546C52.0951 85.6382 52.6002 86.4644 52.6359 87.6833H52.6308Z" fill="#ADCBDD"/>
<path d="M54.0901 91.2532C53.1207 91.0441 53.4625 90.2536 53.386 89.6519C54.6106 89.7539 53.9932 90.6565 54.0901 91.2532Z" fill="#ADCBDD"/>
<path d="M153.387 103.279C152.621 103.044 152.29 102.432 152.035 101.749C152.79 101.81 153.371 102.473 153.387 103.279Z" fill="#ADCBDD"/>
<path d="M153.387 122.97C152.499 122.842 152.494 121.939 152.04 121.435C152.775 121.506 153.371 122.184 153.387 122.97Z" fill="#ADCBDD"/>
<path d="M85.7041 82.1958C85.7449 82.6191 85.5204 82.7823 85.1275 82.7772C84.4081 83.0577 83.7294 83.1087 83.2141 82.3845C84.0713 82.6752 84.8979 82.6089 85.699 82.1958H85.7041Z" fill="#FEFEFE"/>
<path d="M50.5235 84.251C49.7276 84.2 49.6817 83.4452 49.3296 82.9811C50.3041 82.8638 50.5082 83.4707 50.5235 84.251Z" fill="#ADCBDD"/>
<path d="M53.3502 89.1113C52.3604 89.0348 52.7022 88.28 52.6461 87.7241C53.4625 87.8924 53.3298 88.5401 53.3502 89.1113Z" fill="#ADCBDD"/>
<path d="M82.6426 79.3347C82.3518 80.1609 82.362 80.9871 82.6426 81.8133C81.8314 81.1401 81.8314 80.0028 82.6426 79.3347Z" fill="#FEFEFE"/>
<path d="M85.5051 78.7583C84.7398 78.5288 83.9795 78.4115 83.2295 78.8144C83.7703 77.9627 84.8061 77.9372 85.5051 78.7583Z" fill="#FEFEFE"/>
<path d="M86.4441 81.9459L85.8879 82.0071C86.2145 81.2727 86.3472 80.5128 86.2655 79.7122C86.9441 80.4058 86.3982 81.2013 86.4441 81.9459Z" fill="#FEFEFE"/>
<path d="M54.6819 93.334C53.7329 93.1759 54.2635 92.4364 54.1359 91.957C55.1819 92.0743 54.5441 92.8597 54.6819 93.334Z" fill="#ADCBDD"/>
<path d="M152.698 124.464C152.647 123.934 152.698 123.475 153.392 123.464C153.458 124.005 153.53 124.551 152.698 124.464Z" fill="#ADCBDD"/>
<path d="M152.448 65.7434C152.683 65.3864 152.718 64.805 153.372 64.9172C153.591 65.7791 153.055 65.7995 152.448 65.7434Z" fill="#ADCBDD"/>
<path d="M152.637 85.6228C152.616 85.1128 152.754 84.7405 153.371 84.7966C153.53 85.429 153.31 85.7248 152.637 85.6228Z" fill="#ADCBDD"/>
<path d="M152.662 82.7466C152.096 82.8486 151.882 82.5426 151.841 82.0377C152.428 81.9153 152.744 82.0989 152.662 82.7466Z" fill="#ADCBDD"/>
<path d="M152.647 62.8975C152.091 62.9638 151.836 62.6986 151.836 62.158C152.453 62.0254 152.749 62.2447 152.647 62.8975Z" fill="#ADCBDD"/>
<path d="M152.581 105.232C152.581 104.712 152.836 104.452 153.366 104.488C153.494 105.146 153.336 105.508 152.581 105.232Z" fill="#ADCBDD"/>
<path d="M153.382 83.5931C152.846 83.5727 152.611 83.2922 152.677 82.7618C153.32 82.6904 153.524 83.0015 153.382 83.5931Z" fill="#ADCBDD"/>
<path d="M151.882 86.2044C151.81 85.5924 152.229 85.6128 152.637 85.623C152.718 86.2503 152.31 86.2401 151.882 86.2044Z" fill="#ADCBDD"/>
<path d="M86.2756 85.6587C86.6889 85.6587 86.6277 85.9596 86.6379 86.2197C86.2603 86.1993 86.2807 85.9239 86.2756 85.6587Z" fill="#ADCBDD"/>
<path d="M86.2706 79.7172C86.0104 79.6152 85.9083 79.4061 85.8879 79.146C86.2859 79.1562 86.2808 79.4367 86.2706 79.7172Z" fill="#FEFEFE"/>
<path d="M83.0663 78.9623C82.9235 79.0847 82.7857 79.2071 82.6428 79.3295C82.6428 79.0439 82.7857 78.9266 83.0663 78.9623Z" fill="#FEFEFE"/>
<path d="M82.6427 81.8081C82.8315 81.8744 82.954 82.007 83.0254 82.1906C82.7652 82.1957 82.6376 82.0682 82.6427 81.8081Z" fill="#FEFEFE"/>
<path d="M27.9252 80.6505C27.267 80.7117 26.6445 80.6505 26.0271 81.1809C25.4506 81.6705 24.5066 81.4155 23.7566 81.6348C24.3485 81.1095 24.9403 80.6148 25.8128 80.6301C26.1598 80.6352 26.5119 80.6301 26.7006 80.115C26.9047 79.5642 27.4966 79.809 27.9456 79.8498C27.9405 80.1201 27.9354 80.3853 27.9303 80.6556L27.9252 80.6505Z" fill="#ADCBDD"/>
<path d="M49.7632 93.4718C49.4826 93.4361 49.0744 93.4718 49.0642 93.1199C49.0336 92.1611 48.8805 91.2584 48.4009 90.4118C48.3193 90.269 48.4009 90.0395 48.4111 89.8457C48.6356 89.9069 49.0081 89.7692 49.0336 90.1109C49.1203 91.2227 49.4673 92.258 49.8347 93.2984C49.85 93.3392 49.7887 93.4106 49.7683 93.4667L49.7632 93.4718Z" fill="#ADCBDD"/>
<path d="M15.9703 89.769C16.1081 90.3198 16.0469 90.8247 15.5417 91.1664C15.205 91.3959 15.307 91.7376 15.3172 92.0181C15.3325 92.5587 15.0978 92.7576 14.5927 92.7168C14.2304 91.5897 15.4601 90.942 15.4499 89.9118C15.4499 89.8659 15.7917 89.8149 15.9754 89.769H15.9703Z" fill="#ADCBDD"/>
<path d="M37.1451 80.6403C36.7369 80.6505 36.3236 80.6301 35.9154 80.676C35.2266 80.7525 34.8949 80.5026 34.9919 79.7886C35.395 79.7835 35.7981 79.8039 36.196 79.7682C36.8594 79.707 37.1706 79.9773 37.14 80.6454L37.1451 80.6403Z" fill="#CDE1EC"/>
<path d="M42.0842 82.7518C41.5484 82.7059 40.033 81.8032 39.7983 81.385C41.028 81.3442 41.9362 81.8848 42.0842 82.7518Z" fill="#ADCBDD"/>
<path d="M17.4246 87.0203C17.4042 88.2595 16.8634 89.101 16.0215 89.2132C16.3123 88.3666 16.5725 87.5048 17.4246 87.0203Z" fill="#ADCBDD"/>
<path d="M27.925 80.6504C27.9302 80.3801 27.9353 80.1149 27.9404 79.8446C28.4455 79.7018 28.9557 79.7222 29.4711 79.7783C29.5629 81.1502 28.5373 80.528 27.925 80.6504Z" fill="#CDE1EC"/>
<path d="M39.4463 81.3745C38.8851 81.2368 37.936 81.9661 37.885 80.6758C38.4871 80.7166 39.2728 80.3647 39.4463 81.3745Z" fill="#ADCBDD"/>
<path d="M19.5114 84.8782C19.4094 85.684 18.9808 86.2042 18.1848 86.4031C18.1746 85.9951 18.5266 85.8319 18.7409 85.5718C18.7256 85.0414 18.9603 84.7813 19.5114 84.8731V84.8782Z" fill="#CDE1EC"/>
<path d="M21.0524 83.5573C20.833 84.3376 20.3227 84.7762 19.5165 84.8731C19.4043 84.2917 19.7819 84.154 20.236 84.0928C20.4809 83.8684 20.6442 83.5267 21.0524 83.5573Z" fill="#CDE1EC"/>
<path d="M23.7311 81.655C23.4862 82.2925 23.1494 82.8127 22.3433 82.7413C22.3535 81.8029 23.0933 81.7927 23.7311 81.655Z" fill="#CDE1EC"/>
<path d="M18.7408 85.5718C18.5265 85.8268 18.1745 85.9951 18.1847 86.4031C18.2204 86.9488 17.8887 87.0406 17.4448 86.9896C17.5469 86.2144 17.9857 85.7503 18.7408 85.5769V85.5718Z" fill="#ADCBDD"/>
<path d="M21.0522 83.5574C20.644 83.5268 20.4757 83.8685 20.2358 84.0929C20.4144 83.3534 20.843 82.8945 21.6288 82.8333C21.7053 83.2871 21.5778 83.5829 21.0522 83.5625V83.5574Z" fill="#ADCBDD"/>
<path d="M47.6508 89.0704C47.7988 88.5502 47.2426 88.2646 47.2324 87.7954C47.7325 88.1065 48.3856 88.2952 48.3294 89.0806C48.1049 89.0806 47.8753 89.0704 47.6508 89.0704Z" fill="#ADCBDD"/>
<path d="M14.5213 95.5779C14.3377 95.5779 14.154 95.5779 13.9703 95.5779C14.108 95.0577 13.5315 94.2723 14.5162 94.0581C14.5162 94.5681 14.5162 95.073 14.5162 95.583L14.5213 95.5779Z" fill="#ADCBDD"/>
<path d="M44.5077 84.4855C44.0434 84.2917 43.278 84.4396 43.4362 83.542C44.125 83.4043 44.222 84.2305 44.7526 84.3529C44.671 84.3988 44.5944 84.4396 44.5128 84.4855H44.5077Z" fill="#ADCBDD"/>
<path d="M47.6508 89.0706C47.8753 89.0706 48.1049 89.0808 48.3294 89.0808C48.3498 89.3358 48.3702 89.5857 48.3906 89.8407C47.7988 89.9172 47.5437 89.6672 47.6508 89.0706Z" fill="#CDE1EC"/>
<path d="M83.1989 81.4461C82.556 80.7882 82.7244 80.064 83.2244 79.4979C83.7347 78.9216 84.4337 78.6972 85.1378 79.3143L85.1174 79.3347C83.4438 79.3092 83.1938 79.5234 83.2091 80.9565C83.2091 81.1146 83.2091 81.2676 83.2142 81.4257L83.1938 81.4461H83.1989Z" fill="#FEFEFE"/>
<path d="M85.3317 79.5029C85.9389 80.2169 86.0256 80.9258 85.3317 81.6398L85.3113 81.6143C85.5766 80.9207 85.3929 80.222 85.3113 79.5233L85.3317 79.5029Z" fill="#FEFEFE"/>
<path d="M85.3317 81.6398C84.6837 82.3232 84.0357 82.3589 83.3877 81.6398L83.4132 81.6143C84.0459 81.8132 84.6786 81.803 85.3113 81.6143L85.3317 81.6398Z" fill="#FEFEFE"/>
<path d="M83.3878 81.6397C83.3265 81.5734 83.2653 81.5122 83.199 81.4459L83.2194 81.4255C83.2806 81.4867 83.3469 81.553 83.4082 81.6142L83.3827 81.6397H83.3878Z" fill="#FEFEFE"/>
<path d="M85.8929 82.002C85.8265 82.0683 85.7602 82.1346 85.699 82.1958C85.7653 82.1295 85.8316 82.0632 85.8929 82.002Z" fill="#FEFEFE"/>
<path d="M85.143 79.3142C85.2042 79.3754 85.2705 79.4366 85.3318 79.5029L85.3113 79.5233C85.2501 79.4621 85.1838 79.3958 85.1226 79.3346L85.143 79.3142Z" fill="#FEFEFE"/>
<path d="M85.1226 79.3347C85.1838 79.3959 85.2501 79.4622 85.3113 79.5234C85.393 80.2221 85.5716 80.9157 85.3113 81.6144C84.6787 81.8082 84.046 81.8184 83.4133 81.6144C83.352 81.5532 83.2857 81.4869 83.2245 81.4257C83.2245 81.2676 83.2194 81.1146 83.2194 80.9565C83.2041 79.5183 83.4541 79.3092 85.1277 79.3347H85.1226Z" fill="#CDE1EC"/>
</g>
<defs>
<clipPath id="clip0_527_1139">
<rect width="169" height="161" fill="white"/>
</clipPath>
</defs>
</svg>
